<svg width="550" height="90" viewBox="0 0 550 90" fill="none" xmlns="http://www.w3.org/2000/svg">
<g clip-path="url(#clip0_176_627)">
<path d="M0.915039 35.7598C0.915039 35.7598 13.975 51.8798 29.495 41.1198C29.495 41.1198 18.555 59.2098 0.915039 35.7598Z" fill="white"/>
<path d="M48.2848 13.1699C48.2848 13.1699 47.7748 18.4999 58.9848 25.5899C58.9848 25.5899 41.9448 23.3799 48.2848 13.1699Z" fill="white"/>
<path d="M59.5254 10.8799C59.5254 10.8799 65.4354 19.9899 67.1154 22.8799C67.1154 22.8799 68.7454 23.4099 68.7854 25.9799C68.7854 25.9799 68.1554 29.4099 64.6354 29.7499C64.6354 29.7499 63.4754 29.7699 62.9554 29.6399C62.9554 29.6399 61.8954 28.5199 61.6154 26.8699C61.6154 26.8699 62.0054 27.2199 63.3954 27.0899C63.3954 27.0899 64.9254 27.0899 64.7554 25.3499C64.7554 25.3499 60.9154 11.9299 59.5354 10.8899" fill="white"/>
<path d="M44.665 5.7C44.665 5.7 54.105 5.15 56.435 7.99C56.435 7.99 59.735 3.24 59.385 2.64C59.385 2.64 58.645 2.57 56.165 4.95C56.165 4.95 55.665 5.31 55.475 5.11C55.475 5.11 55.185 5 55.625 4.2L57.755 0L52.955 3.99C52.955 3.99 50.855 3.22 44.665 5.7Z" fill="white"/>
<path d="M54.1547 11.3398L54.3247 12.2398L54.5147 12.4598C54.5147 12.4598 54.6347 12.6598 54.9847 12.4298C55.0447 12.3798 55.2847 12.2598 55.2847 12.2598L55.4147 12.1698V12.0298L55.0747 12.0598C55.0747 12.0598 54.9947 12.0498 54.8947 11.9798C54.7847 11.9098 54.6847 11.8198 54.6847 11.8198C54.6847 11.8198 54.5547 11.7098 54.6747 11.6898C54.7947 11.6598 54.6947 11.6498 54.7947 11.6598C54.8947 11.6598 54.9647 11.7598 54.9647 11.7598L55.1447 11.7998C55.1447 11.7998 55.1847 11.8098 55.3047 11.8198C55.4247 11.8298 55.6947 11.8098 55.6947 11.8098C55.6947 11.8098 56.8747 11.2498 57.4247 13.3198L57.2747 13.3398L57.1547 13.2998L56.8747 13.2298C56.8747 13.2298 56.5647 13.5098 55.8947 13.5798C55.8947 13.5798 54.9347 13.4198 54.2447 12.4498C54.2447 12.4498 53.9347 11.4798 54.1947 11.3398" fill="white"/>
<path d="M39.535 7.59988C20.205 17.6299 23.455 24.2299 31.015 34.5699C38.955 45.4199 39.985 62.2199 13.875 70.5499L18.585 69.3299C44.695 60.9899 43.665 44.1899 35.725 33.3499C28.165 23.0099 24.905 16.4099 44.245 6.37988L39.535 7.59988Z" fill="white"/>
<path d="M47.6554 58.5904L46.2754 62.0504H40.7754L48.4454 42.1104H54.1054L61.6154 62.0504H56.0854L54.7954 58.5904H47.6554ZM51.2754 48.2704H51.2254L49.0854 54.6203H53.3954L51.2754 48.2704Z" fill="white"/>
<path d="M68.095 57.6604H74.315V62.0504H62.915V42.1104H68.095V57.6604Z" fill="white"/>
<path d="M96.7348 51.7102C96.7348 58.1602 92.1048 62.7202 85.7048 62.7202C79.3048 62.7202 74.6748 58.1702 74.6748 51.7102C74.6748 45.6802 79.9648 41.4502 85.7048 41.4502C91.4448 41.4502 96.7348 45.6802 96.7348 51.7102ZM80.0748 51.7302C80.0748 55.1702 82.6148 57.6802 85.7048 57.6802C88.7948 57.6802 91.3448 55.1702 91.3448 51.7302C91.3448 48.9802 88.8048 46.4602 85.7048 46.4602C82.6048 46.4602 80.0748 48.9702 80.0748 51.7302Z" fill="white"/>
<path d="M98.8252 42.1104H104.005L113.505 54.3004H113.555V42.1104H118.745V62.0504H113.555L104.065 49.8304H104.005V62.0504H98.8252V42.1104Z" fill="white"/>
<path d="M127.665 47.3398H130.485C132.725 47.3398 134.555 47.6398 136.315 49.1498C138.025 50.6198 138.795 52.6198 138.795 54.8398C138.795 57.0598 138.005 58.9498 136.355 60.4098C134.565 61.9998 132.785 62.2998 130.445 62.2998H127.665V47.3398ZM130.545 60.7598C132.365 60.7598 133.895 60.4998 135.265 59.2098C136.495 58.0598 137.125 56.4898 137.125 54.8298C137.125 53.1698 136.475 51.4798 135.185 50.3498C133.815 49.1398 132.305 48.8998 130.545 48.8998H129.335V60.7698H130.545V60.7598Z" fill="white"/>
<path d="M141.745 56.2498C141.745 57.3598 141.705 58.6298 142.405 59.5798C143.055 60.4998 144.325 61.0098 145.425 61.0098C146.525 61.0098 147.665 60.5198 148.365 59.6798C149.155 58.7298 149.095 57.4198 149.095 56.2498V47.3398H150.765V56.7098C150.765 58.3398 150.645 59.6198 149.455 60.8498C148.425 61.9598 146.935 62.5598 145.425 62.5598C144.015 62.5598 142.565 62.0198 141.555 61.0298C140.245 59.7798 140.085 58.4098 140.085 56.7098V47.3398H141.755V56.2498H141.745Z" fill="white"/>
<path d="M172.855 48.8003C171.795 47.3803 170.075 46.6003 168.305 46.6003C165.125 46.6003 162.985 49.0303 162.985 52.1303C162.985 55.2303 165.155 57.5503 168.385 57.5503C170.075 57.5503 171.765 56.7303 172.855 55.4303V61.6403C171.135 62.1703 169.895 62.5703 168.275 62.5703C165.495 62.5703 162.855 61.5103 160.785 59.6403C158.585 57.6603 157.585 55.0603 157.585 52.1003C157.585 49.3803 158.615 46.7603 160.525 44.8003C162.485 42.7903 165.315 41.5703 168.115 41.5703C169.785 41.5703 171.315 41.9403 172.845 42.5803V48.7903L172.855 48.8003Z" fill="white"/>
<path d="M188.405 49.8004V42.1104H193.595V62.0504H188.405V53.8804H180.925V62.0504H175.735V42.1104H180.925V49.8004H188.405Z" fill="white"/>
<path d="M201.845 46.4904V49.8304H207.685V54.2204H201.845V57.6604H208.005V62.0504H196.655V42.1104H208.005V46.4904H201.845Z" fill="white"/>
<path d="M219.245 54.2204L224.085 42.1104H229.715L221.195 62.0504H217.175L208.795 42.1104H214.425L219.245 54.2204Z" fill="white"/>
<path d="M233.395 58.5904L232.015 62.0504H226.515L234.185 42.1104H239.845L247.355 62.0504H241.825L240.535 58.5904H233.395ZM237.015 48.2704H236.965L234.825 54.6203H239.135L237.015 48.2704Z" fill="white"/>
<path d="M253.835 57.6604H260.055V62.0504H248.655V42.1104H253.835V57.6604Z" fill="white"/>
<path d="M32.3555 74.0703H35.1755C37.4155 74.0703 39.2455 74.3703 41.0055 75.8803C42.7155 77.3503 43.4855 79.3503 43.4855 81.5703C43.4855 83.7903 42.6855 85.6803 41.0455 87.1403C39.2555 88.7303 37.4755 89.0303 35.1355 89.0303H32.3555V74.0703ZM35.2255 87.4803C37.0555 87.4803 38.5755 87.2203 39.9455 85.9303C41.1755 84.7803 41.8055 83.2103 41.8055 81.5503C41.8055 79.8903 41.1555 78.2003 39.8655 77.0703C38.4955 75.8603 36.9855 75.6203 35.2255 75.6203H34.0155V87.4903H35.2255V87.4803Z" fill="white"/>
<path d="M45.2451 74.0703L45.6051 80.5803H46.7451L47.1051 74.0703H45.2451Z" fill="white"/>
<path d="M94.0252 69.0901V82.5501C94.0252 86.7501 91.8252 89.5601 87.4152 89.5601C85.1952 89.5601 83.4752 88.4501 82.2852 86.6301L85.2752 83.4801C85.8552 84.2701 86.6752 85.1701 87.3652 85.1701C88.8952 85.1701 88.8452 83.3501 88.8452 82.2301V69.0801H94.0252V69.0901Z" fill="white"/>
<path d="M105.635 75.2498H105.685L107.805 81.5998H103.495L105.635 75.2498ZM102.855 69.0898L95.1846 89.0298H100.685L102.055 85.5698H109.195L110.495 89.0298H116.025L108.515 69.0898H102.855Z" fill="white"/>
<path d="M117.315 69.0898H124.665C130.215 69.0898 134.795 73.4498 134.795 79.0598C134.795 84.6698 130.195 89.0298 124.665 89.0298H117.315V69.0898ZM122.505 84.6398H123.665C126.755 84.6398 129.405 82.9498 129.405 79.0598C129.405 75.4898 127.055 73.4799 123.715 73.4799H122.495V84.6398H122.505Z" fill="white"/>
<path d="M142.065 69.0801H136.885V89.0201H142.065V69.0801Z" fill="white"/>
<path d="M145.135 69.0898H152.485C158.035 69.0898 162.615 73.4498 162.615 79.0598C162.615 84.6698 158.015 89.0298 152.485 89.0298H145.135V69.0898ZM150.315 84.6398H151.475C154.575 84.6398 157.215 82.9498 157.215 79.0598C157.215 75.4898 154.865 73.4799 151.525 73.4799H150.315V84.6398Z" fill="white"/>
<path d="M173.355 75.2498H173.405L175.525 81.5998H171.215L173.355 75.2498ZM170.575 69.0898L162.905 89.0298H168.405L169.775 85.5698H176.915L178.215 89.0298H183.745L176.235 69.0898H170.575Z" fill="white"/>
<path d="M50.8447 69.0898V89.0298H62.1947V84.6398H56.0247V81.1998H61.8747V76.8098H56.0247V73.4799H62.1947V69.0898H50.8447Z" fill="white"/>
<path d="M65.2852 69.0898V89.0298H76.6852V84.6398H70.4652V69.0898H65.2852Z" fill="white"/>
<path d="M295.575 60.4195H300.065C303.805 60.4195 305.715 57.4195 305.715 53.6195C305.715 49.8195 303.805 46.7695 300.065 46.7695H295.575V60.4195ZM292.635 63.1295V44.0195H300.065C305.495 44.0195 308.655 48.1795 308.655 53.6195C308.655 59.0595 305.495 63.1295 300.065 63.1295H292.635Z" fill="white"/>
<path d="M323.025 56.5093V44.0293H325.985V56.5093C325.985 60.7293 322.715 63.4193 318.925 63.4193C315.135 63.4193 311.835 60.7293 311.835 56.5093V44.0293H314.825V56.5093C314.825 58.9793 316.735 60.5893 318.925 60.5893C321.115 60.5893 323.025 58.9793 323.025 56.5093Z" fill="white"/>
<path d="M342.775 54.3795V50.6795H344.895C346.985 50.6795 346.865 48.6195 346.865 48.4895C346.865 47.8695 346.345 46.5495 344.835 46.5495C343.755 46.5495 343.075 47.0395 342.715 47.6595L339.235 45.5295C340.435 43.5895 342.805 42.3795 345.515 42.5395C349.055 42.6895 351.575 45.3395 351.485 48.2095C351.485 49.9095 350.375 51.3195 348.895 52.1595C351.115 52.9895 352.495 55.4895 352.345 57.6395C352.005 61.1195 348.435 63.6195 344.405 63.3695C341.605 63.2195 339.015 61.4895 337.975 59.1495L341.765 57.2695C342.165 58.2595 343.615 59.1195 344.755 59.2095C346.355 59.2995 347.495 58.1295 347.645 57.0495C347.645 56.6495 347.955 54.2795 344.905 54.3695H342.785L342.775 54.3795Z" fill="white"/>
<path d="M363.895 59.2498C366.325 59.2498 367.064 56.4098 367.064 53.0198C367.064 49.6298 366.325 46.7398 363.895 46.7398C361.465 46.7398 360.664 49.6098 360.664 53.0198C360.664 56.4298 361.435 59.2498 363.895 59.2498ZM363.895 42.5498C369.775 42.5498 371.374 47.1998 371.374 53.0298C371.374 58.8598 369.775 63.4498 363.895 63.4498C358.015 63.4498 356.354 58.7998 356.354 53.0298C356.354 47.2598 358.015 42.5498 363.895 42.5498Z" fill="white"/>
<path d="M386.825 57.5898C386.905 59.1398 388.325 60.7198 390.625 60.7198C392.925 60.7198 394.035 59.5298 394.225 58.1098C394.335 56.3298 392.975 55.4198 391.205 54.9998L388.795 54.3898C384.695 53.2798 384.055 50.9498 384.055 49.2598C384.055 45.9898 386.995 43.7998 390.345 43.7998C393.895 43.7998 396.555 45.9598 396.555 49.4598H393.615C393.615 47.6798 392.285 46.5798 390.295 46.5798C388.525 46.5798 386.995 47.6598 386.995 49.2098C386.995 49.9598 387.275 51.1198 389.545 51.7098L391.985 52.3498C395.865 53.3798 397.445 55.5098 397.135 58.2898C396.835 61.2898 394.255 63.4198 390.625 63.4198C386.665 63.4198 383.895 60.6998 383.895 57.5898H386.835H386.825Z" fill="white"/>
<path d="M402.555 44.0195H414.055V46.7395H405.495V52.3995H412.975V55.0895H405.495V60.4395H414.335V63.1395H402.555V44.0195Z" fill="white"/>
<path d="M422.895 46.7395V53.4195H427.435C429.545 53.4195 430.485 51.7295 430.485 50.0895C430.485 48.4495 429.625 46.7395 427.545 46.7395H422.895ZM419.925 44.0195H427.595C431.695 44.0195 433.415 47.0695 433.415 50.0895C433.415 53.1095 431.695 56.1095 427.595 56.1095H422.885V63.1295H419.915V44.0195H419.925Z" fill="white"/>
<path d="M436.655 44.0195H450.895V46.7695H445.275V63.1395H442.285V46.7695H436.655V44.0195Z" fill="white"/>
<path d="M455.825 44.0195H467.325V46.7395H458.765V52.3995H466.245V55.0895H458.765V60.4395H467.605V63.1395H455.825V44.0195Z" fill="white"/>
<path d="M490.015 44.0195H492.645L494.975 63.1395H492.035L490.405 49.4895L484.805 60.9995H482.315L476.685 49.4895L475.055 63.1395H472.115L474.445 44.0195H477.045L483.535 57.6395L490.015 44.0195Z" fill="white"/>
<path d="M502.945 54.3993V60.4493H507.735C509.505 60.4493 510.535 58.9793 510.535 57.5093C510.535 56.0393 509.485 54.3993 507.655 54.3993H502.945ZM507.185 51.8693C508.735 51.8693 509.535 50.6193 509.535 49.1793C509.535 47.6293 508.565 46.7093 506.985 46.7093H502.945V51.8693H507.185ZM510.125 52.9593C512.345 53.4893 513.615 55.7093 513.615 57.5393C513.615 60.5593 511.505 63.1393 507.885 63.1393H499.985V44.0293H507.295C510.535 44.0293 512.585 45.9393 512.585 49.0793C512.585 50.5793 511.975 52.2093 510.115 52.9593" fill="white"/>
<path d="M522.035 46.7395V53.4195H526.305C528.435 53.4195 529.295 51.7295 529.295 50.0895C529.295 48.4495 528.465 46.7295 526.415 46.7295H522.035V46.7395ZM532.425 63.1295H528.855L524.095 56.1095H522.045V63.1295H519.085V44.0195H526.535C530.635 44.0195 532.355 47.0695 532.355 50.0995C532.355 52.8695 530.945 55.6495 527.425 56.0095L532.435 63.1395L532.425 63.1295Z" fill="white"/>
<path d="M537.385 44.0195V63.1295H549.155V60.4395H540.315V55.0895H547.795V52.3995H540.315V46.7395H548.875V44.0195H537.385Z" fill="white"/>
<path d="M300.705 74.4501L303.445 82.1502H297.955L300.695 74.4501H300.705ZM299.165 70.9102L292.245 89.2602H295.255L297.015 84.6802H304.425L306.185 89.2602H309.165L302.235 70.9102H299.175H299.165Z" fill="white"/>
<path d="M321.775 82.9002V70.9102H324.625V82.9002C324.625 86.9502 321.485 89.5302 317.835 89.5302C314.185 89.5302 311.015 86.9502 311.015 82.9002V70.9102H313.895V82.9002C313.895 85.2702 315.735 86.8202 317.835 86.8202C319.935 86.8202 321.775 85.2702 321.775 82.9002Z" fill="white"/>
<path d="M341.445 79.2599C340.265 79.2599 338.275 79.6399 337.185 81.3899L334.905 80.2099L336.505 69.8799H347.865V73.6699H339.785L339.285 76.8099C340.085 76.1299 341.565 75.7999 342.835 75.7999C346.295 75.7999 349.165 78.1099 349.165 82.4299C349.165 86.7499 346.055 89.5599 341.175 89.5599C338.455 89.5599 335.815 87.9899 334.305 85.6499L337.795 83.3999C338.595 84.5799 339.955 85.4099 341.165 85.4099C343.415 85.4099 345.015 83.9599 345.015 82.4199C345.015 80.2599 343.445 79.2499 341.435 79.2499" fill="white"/>
<path d="M366.094 86.7602C369.744 86.7602 372.564 83.8302 372.564 80.1302C372.564 76.4302 369.744 73.4702 366.094 73.4702C362.444 73.4702 359.644 76.4302 359.644 80.1302C359.644 83.8302 362.464 86.7602 366.094 86.7602ZM366.094 70.7002C371.344 70.7002 375.414 74.9302 375.414 80.1302C375.414 85.3302 371.344 89.5302 366.094 89.5302C360.844 89.5302 356.824 85.3502 356.824 80.1302C356.824 74.9102 360.874 70.7002 366.094 70.7002Z" fill="white"/>
<path d="M394.325 86.1502C392.725 88.2502 390.195 89.5302 387.185 89.5302C381.995 89.5302 377.915 85.3502 377.915 80.1302C377.915 74.9102 381.995 70.7002 387.185 70.7002C390.145 70.7002 392.645 71.9802 394.265 74.0002L392.085 75.7102C390.885 74.3502 389.205 73.4202 387.185 73.4202C383.535 73.4202 380.735 76.4302 380.735 80.1302C380.735 83.8302 383.535 86.8202 387.185 86.8202C389.205 86.8202 390.995 85.9102 392.135 84.4202L394.315 86.1502H394.325Z" fill="white"/>
<path d="M395.635 70.9102V73.5502H401.035V89.2602H403.915V73.5502H409.325V70.9102H395.635Z" fill="white"/>
<path d="M420.055 86.7602C423.705 86.7602 426.525 83.8302 426.525 80.1302C426.525 76.4302 423.705 73.4702 420.055 73.4702C416.405 73.4702 413.605 76.4302 413.605 80.1302C413.605 83.8302 416.425 86.7602 420.055 86.7602ZM420.055 70.7002C425.305 70.7002 429.375 74.9302 429.375 80.1302C429.375 85.3302 425.305 89.5302 420.055 89.5302C414.805 89.5302 410.785 85.3502 410.785 80.1302C410.785 74.9102 414.835 70.7002 420.055 70.7002Z" fill="white"/>
<path d="M435.875 80.8702V86.6802H440.485C442.195 86.6802 443.175 85.2702 443.175 83.8602C443.175 82.4502 442.165 80.8801 440.405 80.8801H435.875V80.8702ZM439.955 78.4501C441.445 78.4501 442.215 77.2502 442.215 75.8702C442.215 74.3802 441.285 73.5002 439.765 73.5002H435.875V78.4501H439.955ZM442.775 79.4902C444.905 79.9902 446.135 82.1301 446.135 83.8801C446.135 86.7801 444.115 89.2602 440.625 89.2602H433.035V70.9102H440.065C443.185 70.9102 445.155 72.7502 445.155 75.7602C445.155 77.2002 444.575 78.7702 442.785 79.4902" fill="white"/>
<path d="M452.625 73.5201V79.9402H456.725C458.775 79.9402 459.605 78.3102 459.605 76.7402C459.605 75.1702 458.805 73.5201 456.835 73.5201H452.625ZM462.615 89.2602H459.175L454.595 82.5201H452.625V89.2602H449.775V70.9102H456.935C460.875 70.9102 462.525 73.8402 462.525 76.7402C462.525 79.4002 461.165 82.0702 457.785 82.4102L462.605 89.2602H462.615Z" fill="white"/>
<path d="M466.345 70.9102V89.2602H477.665V86.6802H469.165V81.5402H476.355V78.9602H469.165V73.5201H477.395V70.9102H466.345Z" fill="white"/>
<path d="M487.295 89.2602V87.0102L495.255 77.5702C495.845 76.8902 496.295 76.1202 496.295 75.3802C496.295 74.3402 495.405 73.4602 493.865 73.4602C492.325 73.4602 491.345 74.6102 491.115 76.1502L487.325 75.5002C487.915 71.8002 490.405 69.4902 494.105 69.4902C497.535 69.4902 500.435 71.9202 500.435 75.3802C500.435 77.2702 499.575 78.9602 498.395 80.2902L493.925 85.3502H499.905V89.2602H487.295Z" fill="white"/>
<path d="M509.814 85.5302C512.154 85.5302 512.864 82.8102 512.864 79.5502C512.864 76.2902 512.154 73.5102 509.814 73.5102C507.474 73.5102 506.704 76.2602 506.704 79.5502C506.704 82.8402 507.444 85.5302 509.814 85.5302ZM509.814 69.4902C515.464 69.4902 517.004 73.9602 517.004 79.5502C517.004 85.1402 515.464 89.5502 509.814 89.5502C504.164 89.5502 502.564 85.0802 502.564 79.5502C502.564 74.0202 504.164 69.4902 509.814 69.4902Z" fill="white"/>
<path d="M519.074 89.2602V87.0102L527.034 77.5702C527.624 76.8902 528.074 76.1202 528.074 75.3802C528.074 74.3402 527.184 73.4602 525.644 73.4602C524.104 73.4602 523.124 74.6102 522.894 76.1502L519.104 75.5002C519.694 71.8002 522.184 69.4902 525.884 69.4902C529.314 69.4902 532.214 71.9202 532.214 75.3802C532.214 77.2702 531.354 78.9602 530.174 80.2902L525.704 85.3502H531.684V89.2602H519.074Z" fill="white"/>
<path d="M541.035 79.2599C539.855 79.2599 537.865 79.6399 536.775 81.3899L534.495 80.2099L536.095 69.8799H547.455V73.6699H539.375L538.875 76.8099C539.675 76.1299 541.155 75.7999 542.425 75.7999C545.885 75.7999 548.755 78.1099 548.755 82.4299C548.755 86.7499 545.645 89.5599 540.765 89.5599C538.045 89.5599 535.405 87.9899 533.895 85.6499L537.385 83.3999C538.185 84.5799 539.545 85.4099 540.755 85.4099C543.005 85.4099 544.605 83.9599 544.605 82.4199C544.605 80.2599 543.035 79.2499 541.025 79.2499" fill="white"/>
<path d="M297.535 30.1102C297.625 31.2102 298.305 32.1102 300.065 32.1102C301.375 32.1102 302.595 31.5702 302.595 30.2602C302.595 29.9302 302.595 29.2802 300.535 28.5602L298.125 27.7502C293.535 26.5002 292.755 23.6102 292.755 21.7002C292.755 17.9702 295.795 15.4102 299.935 15.4102C304.075 15.4102 306.995 17.7602 306.995 21.8202H302.015C302.015 20.7202 301.385 19.9102 299.865 19.9102C298.525 19.9102 297.685 20.5702 297.685 21.5502C297.685 21.9702 297.805 22.6802 299.595 23.2202L301.955 23.9702C307.345 25.6402 307.645 28.7702 307.645 30.2302C307.645 34.7602 303.505 36.4902 300.045 36.4902C295.425 36.4902 292.475 34.0202 292.475 30.1102H297.515H297.535Z" fill="white"/>
<path d="M311.075 36.2197V15.6797H324.395V20.0297H316.045V23.9697H323.375V28.2297H316.045V31.8597H324.665V36.2197H311.075Z" fill="white"/>
<path d="M333.365 15.6797H328.385V36.2197H333.365V15.6797Z" fill="white"/>
<path d="M345.675 19.9997H337.265V15.6797H352.205V19.3497L343.285 31.8697H352.205V36.2197H336.885V32.5497L345.675 19.9997Z" fill="white"/>
<path d="M360.875 15.6797H355.896V36.2197H360.875V15.6797Z" fill="white"/>
<path d="M367.235 8.86035H371.885L374.525 14.2404H371.325L367.235 8.86035ZM379.375 36.2204H365.695V15.7404H379.095V20.3204H370.935V23.8604H378.115V28.3704H370.935V31.6304H379.365V36.2104L379.375 36.2204Z" fill="white"/>
<path d="M400.395 15.6797H404.595L407.095 36.2197H401.975L400.725 25.1597L396.575 33.8297H392.825L388.655 25.1597L387.375 36.2197H382.245L384.775 15.6797H388.915L394.705 28.1697L400.395 15.6797Z" fill="white"/>
<path d="M410.585 36.2197V15.6797H423.915V20.0297H415.565V23.9697H422.895V28.2297H415.565V31.8597H424.175V36.2197H410.585Z" fill="white"/>
<path d="M446.115 8.70996L442.005 13.9H438.935L441.705 8.70996H446.115ZM434.995 36.22V15.68H448.315V20.03H439.965V23.96H447.295V28.22H439.965V31.86H448.575V36.21H434.985L434.995 36.22Z" fill="white"/>
<path d="M457.315 31.7797H460.445C463.335 31.7797 464.795 29.0097 464.795 25.9997C464.795 22.9897 463.335 20.1297 460.445 20.1297H457.315V31.7897V31.7797ZM452.315 15.6797H460.455C466.385 15.6797 469.785 20.1497 469.785 25.9897C469.785 31.8297 466.385 36.2097 460.455 36.2097H452.315V15.6797Z" fill="white"/>
<path d="M478.305 15.6797H473.325V36.2197H478.305V15.6797Z" fill="white"/>
<path d="M481.405 20.0297V15.6797H496.985V20.0297H491.685V36.2197H486.705V20.0297H481.405Z" fill="white"/>
<path d="M505.075 15.6797H500.095V36.2197H505.075V15.6797Z" fill="white"/>
<path d="M518.955 31.4802C521.965 31.4802 524.435 29.0302 524.435 25.9702C524.435 22.9102 521.955 20.4302 518.955 20.4302C515.955 20.4302 513.525 22.9002 513.525 25.9702C513.525 29.0402 515.915 31.4802 518.955 31.4802ZM518.955 15.4102C524.795 15.4102 529.445 20.1502 529.445 25.9602C529.445 31.7702 524.795 36.4802 518.955 36.4802C513.115 36.4802 508.495 31.7402 508.495 25.9602C508.495 20.1802 513.145 15.4102 518.955 15.4102Z" fill="white"/>
<path d="M543.515 15.6797V26.7397L537.375 15.6797H532.875V36.2197H537.855V25.0097L544.135 36.2197H548.495V15.6797H543.515Z" fill="white"/>
<path d="M276.146 15.2803V89.5603" stroke="white" stroke-width="0.92" stroke-miterlimit="10"/>
</g>
<defs>
<clipPath id="clip0_176_627">
<rect width="548.24" height="89.56" fill="white" transform="translate(0.915039)"/>
</clipPath>
</defs>
</svg>
